<svg width="134" height="40" viewBox="0 0 134 40" fill="none" xmlns="http://www.w3.org/2000/svg">
<rect width="134" height="40" rx="4" fill="white"/>
<rect x="0.35" y="0.35" width="133.3" height="39.3" rx="3.65" stroke="#4A4A4A" stroke-opacity="0.3" stroke-width="0.7"/>
<path d="M28.2104 20.6945C28.1854 17.9164 30.4852 16.5648 30.5903 16.5018C29.2879 14.6029 27.2692 14.3434 26.5598 14.3227C24.8643 14.1443 23.2196 15.3373 22.3559 15.3373C21.4749 15.3373 20.1449 14.34 18.7114 14.3693C16.8668 14.3977 15.1412 15.4657 14.1946 17.1242C12.2414 20.5057 13.6981 25.4751 15.5696 28.2084C16.5056 29.5479 17.5995 31.0418 19.0312 30.9892C20.4319 30.9323 20.9552 30.097 22.6455 30.097C24.3203 30.097 24.8117 30.9892 26.2718 30.9556C27.7752 30.9323 28.7216 29.6109 29.625 28.2601C30.7068 26.7267 31.1411 25.2148 31.1585 25.1372C31.1239 25.1251 28.2397 24.0235 28.2104 20.6945ZM25.4521 12.5246C26.2054 11.5825 26.7209 10.3007 26.5778 9C25.4873 9.04827 24.1237 9.75424 23.3384 10.6757C22.6436 11.4877 22.023 12.8186 22.1833 14.0702C23.4083 14.1616 24.6659 13.4521 25.4521 12.5246Z" fill="#4A4A4A"/>
<path d="M45.8945 14.5005L44.8373 11.7614C44.806 11.6799 44.7731 11.5859 44.7387 11.4795C44.7042 11.3698 44.6713 11.2539 44.64 11.1318C44.5742 11.3855 44.5069 11.5969 44.438 11.766L43.3808 14.5005H45.8945ZM47.7926 17H47.0878C47.0064 17 46.9406 16.9796 46.8905 16.9389C46.8404 16.8982 46.8028 16.8465 46.7777 16.7839L46.1482 15.1583H43.1271L42.4976 16.7839C42.4788 16.8403 42.4427 16.8904 42.3895 16.9342C42.3363 16.9781 42.2705 17 42.1922 17H41.4874L44.1796 10.2673H45.1004L47.7926 17ZM52.1829 12.2406L50.2425 17H49.4907L47.5503 12.2406H48.2316C48.3005 12.2406 48.3569 12.2578 48.4007 12.2923C48.4446 12.3267 48.4743 12.3674 48.49 12.4144L49.6975 15.4777C49.7351 15.5936 49.7679 15.7064 49.7961 15.816C49.8243 15.9256 49.851 16.0353 49.876 16.1449C49.9011 16.0353 49.9277 15.9256 49.9559 15.816C49.9841 15.7064 50.0185 15.5936 50.0592 15.4777L51.2808 12.4144C51.2996 12.3643 51.3309 12.3236 51.3748 12.2923C51.4186 12.2578 51.4703 12.2406 51.5298 12.2406H52.1829ZM55.4283 14.8576C55.0431 14.8701 54.7142 14.9014 54.4417 14.9515C54.1723 14.9985 53.9515 15.0612 53.7792 15.1395C53.6101 15.2178 53.4864 15.3102 53.4081 15.4167C53.3329 15.5232 53.2953 15.6422 53.2953 15.7737C53.2953 15.899 53.3157 16.0071 53.3564 16.0979C53.3971 16.1888 53.4519 16.2639 53.5208 16.3234C53.5929 16.3798 53.6759 16.4221 53.7698 16.4503C53.8669 16.4754 53.9703 16.4879 54.0799 16.4879C54.2271 16.4879 54.3618 16.4738 54.484 16.4456C54.6061 16.4143 54.7205 16.3704 54.827 16.314C54.9366 16.2577 55.04 16.1903 55.137 16.112C55.2373 16.0337 55.3344 15.9444 55.4283 15.8442V14.8576ZM52.7268 12.9124C52.9899 12.6587 53.2734 12.4692 53.5772 12.3439C53.881 12.2187 54.2177 12.156 54.5873 12.156C54.8536 12.156 55.0901 12.1999 55.2968 12.2876C55.5035 12.3753 55.6774 12.4974 55.8183 12.654C55.9593 12.8106 56.0658 13.0001 56.1378 13.2225C56.2098 13.4449 56.2459 13.6892 56.2459 13.9555V17H55.8747C55.7933 17 55.7306 16.9875 55.6868 16.9624C55.6429 16.9342 55.6084 16.881 55.5834 16.8027L55.4894 16.3516C55.3641 16.4675 55.242 16.5709 55.123 16.6617C55.0039 16.7494 54.8786 16.8246 54.7471 16.8872C54.6155 16.9468 54.4746 16.9922 54.3242 17.0235C54.177 17.0579 54.0126 17.0752 53.8309 17.0752C53.6461 17.0752 53.4723 17.0501 53.3094 17C53.1465 16.9468 53.004 16.8684 52.8818 16.7651C52.7628 16.6617 52.6673 16.5317 52.5952 16.3751C52.5263 16.2154 52.4919 16.0274 52.4919 15.8113C52.4919 15.6234 52.5436 15.4433 52.6469 15.271C52.7503 15.0956 52.9179 14.9406 53.1497 14.8059C53.3814 14.6712 53.6837 14.5616 54.0564 14.477C54.4292 14.3893 54.8865 14.3392 55.4283 14.3266V13.9555C55.4283 13.5859 55.3485 13.3071 55.1887 13.1192C55.029 12.9281 54.7956 12.8326 54.4887 12.8326C54.282 12.8326 54.1081 12.8592 53.9672 12.9124C53.8293 12.9626 53.7088 13.0205 53.6054 13.0863C53.5052 13.1489 53.4175 13.2069 53.3423 13.2601C53.2702 13.3102 53.1982 13.3353 53.1262 13.3353C53.0698 13.3353 53.0212 13.3212 52.9805 13.293C52.9398 13.2617 52.9053 13.2241 52.8771 13.1802L52.7268 12.9124ZM58.4031 12.2406V17H57.5668V12.2406H58.4031ZM58.5816 10.7465C58.5816 10.8279 58.5644 10.9047 58.5299 10.9767C58.4986 11.0456 58.4547 11.1083 58.3984 11.1647C58.3451 11.2179 58.2809 11.2602 58.2057 11.2915C58.1337 11.3228 58.0569 11.3385 57.9755 11.3385C57.8941 11.3385 57.8173 11.3228 57.7453 11.2915C57.6764 11.2602 57.6153 11.2179 57.5621 11.1647C57.5088 11.1083 57.4665 11.0456 57.4352 10.9767C57.4039 10.9047 57.3882 10.8279 57.3882 10.7465C57.3882 10.6651 57.4039 10.5883 57.4352 10.5163C57.4665 10.4411 57.5088 10.3769 57.5621 10.3237C57.6153 10.2673 57.6764 10.2234 57.7453 10.1921C57.8173 10.1608 57.8941 10.1451 57.9755 10.1451C58.0569 10.1451 58.1337 10.1608 58.2057 10.1921C58.2809 10.2234 58.3451 10.2673 58.3984 10.3237C58.4547 10.3769 58.4986 10.4411 58.5299 10.5163C58.5644 10.5883 58.5816 10.6651 58.5816 10.7465ZM60.6417 10.0793V17H59.8054V10.0793H60.6417ZM64.5773 14.8576C64.192 14.8701 63.8631 14.9014 63.5906 14.9515C63.3212 14.9985 63.1004 15.0612 62.9281 15.1395C62.759 15.2178 62.6353 15.3102 62.557 15.4167C62.4818 15.5232 62.4442 15.6422 62.4442 15.7737C62.4442 15.899 62.4646 16.0071 62.5053 16.0979C62.546 16.1888 62.6008 16.2639 62.6697 16.3234C62.7418 16.3798 62.8248 16.4221 62.9187 16.4503C63.0158 16.4754 63.1192 16.4879 63.2288 16.4879C63.3761 16.4879 63.5107 16.4738 63.6329 16.4456C63.7551 16.4143 63.8694 16.3704 63.9759 16.314C64.0855 16.2577 64.1889 16.1903 64.286 16.112C64.3862 16.0337 64.4833 15.9444 64.5773 15.8442V14.8576ZM61.8757 12.9124C62.1388 12.6587 62.4223 12.4692 62.7261 12.3439C63.0299 12.2187 63.3667 12.156 63.7363 12.156C64.0025 12.156 64.239 12.1999 64.4457 12.2876C64.6524 12.3753 64.8263 12.4974 64.9672 12.654C65.1082 12.8106 65.2147 13.0001 65.2867 13.2225C65.3588 13.4449 65.3948 13.6892 65.3948 13.9555V17H65.0236C64.9422 17 64.8795 16.9875 64.8357 16.9624C64.7918 16.9342 64.7574 16.881 64.7323 16.8027L64.6383 16.3516C64.5131 16.4675 64.3909 16.5709 64.2719 16.6617C64.1528 16.7494 64.0276 16.8246 63.896 16.8872C63.7644 16.9468 63.6235 16.9922 63.4732 17.0235C63.3259 17.0579 63.1615 17.0752 62.9798 17.0752C62.795 17.0752 62.6212 17.0501 62.4583 17C62.2954 16.9468 62.1529 16.8684 62.0308 16.7651C61.9117 16.6617 61.8162 16.5317 61.7442 16.3751C61.6753 16.2154 61.6408 16.0274 61.6408 15.8113C61.6408 15.6234 61.6925 15.4433 61.7958 15.271C61.8992 15.0956 62.0668 14.9406 62.2986 14.8059C62.5304 14.6712 62.8326 14.5616 63.2053 14.477C63.5781 14.3893 64.0354 14.3392 64.5773 14.3266V13.9555C64.5773 13.5859 64.4974 13.3071 64.3376 13.1192C64.1779 12.9281 63.9446 12.8326 63.6376 12.8326C63.4309 12.8326 63.257 12.8592 63.1161 12.9124C62.9783 12.9626 62.8577 13.0205 62.7543 13.0863C62.6541 13.1489 62.5664 13.2069 62.4912 13.2601C62.4192 13.3102 62.3471 13.3353 62.2751 13.3353C62.2187 13.3353 62.1701 13.3212 62.1294 13.293C62.0887 13.2617 62.0543 13.2241 62.0261 13.1802L61.8757 12.9124ZM67.5097 15.8536C67.6632 16.0603 67.8307 16.206 68.0124 16.2906C68.1972 16.3751 68.3992 16.4174 68.6185 16.4174C69.0664 16.4174 69.4094 16.2592 69.6474 15.9429C69.8855 15.6265 70.0045 15.1551 70.0045 14.5287C70.0045 13.9461 69.898 13.5185 69.685 13.246C69.4752 12.9704 69.1745 12.8326 68.7829 12.8326C68.5104 12.8326 68.2724 12.8952 68.0688 13.0205C67.8683 13.1458 67.682 13.3228 67.5097 13.5514V15.8536ZM67.5097 12.9265C67.7101 12.6948 67.9357 12.51 68.1862 12.3721C68.44 12.2343 68.7313 12.1654 69.0601 12.1654C69.3389 12.1654 69.5895 12.2187 69.8119 12.3252C70.0374 12.4316 70.2285 12.5867 70.3851 12.7903C70.5417 12.9908 70.6607 13.2351 70.7421 13.5232C70.8267 13.8114 70.869 14.1356 70.869 14.4958C70.869 14.881 70.822 15.2319 70.728 15.5482C70.6341 15.8646 70.4978 16.1355 70.3193 16.361C70.1439 16.5834 69.9293 16.7573 69.6756 16.8825C69.4219 17.0047 69.1369 17.0658 68.8205 17.0658C68.5073 17.0658 68.2426 17.0078 68.0265 16.8919C67.8135 16.7729 67.6271 16.6053 67.4674 16.3892L67.4251 16.8215C67.4001 16.9405 67.328 17 67.209 17H66.6687V10.0793H67.5097V12.9265ZM72.7913 10.0793V17H71.955V10.0793H72.7913ZM77.333 14.1011C77.333 13.9069 77.3048 13.73 77.2484 13.5702C77.1951 13.4073 77.1153 13.268 77.0088 13.1521C76.9054 13.033 76.7786 12.9422 76.6282 12.8796C76.4779 12.8138 76.3072 12.7809 76.1161 12.7809C75.7152 12.7809 75.3972 12.8983 75.1623 13.1333C74.9305 13.3651 74.7865 13.6877 74.7301 14.1011H77.333ZM78.0095 16.3328C77.9062 16.4581 77.7824 16.5678 77.6384 16.6617C77.4943 16.7526 77.3392 16.8277 77.1732 16.8872C77.0103 16.9468 76.8412 16.9906 76.6658 17.0188C76.4904 17.0501 76.3166 17.0658 76.1443 17.0658C75.8154 17.0658 75.5116 17.011 75.2328 16.9013C74.9572 16.7886 74.7176 16.6257 74.514 16.4127C74.3135 16.1966 74.1569 15.9303 74.0441 15.614C73.9314 15.2976 73.875 14.9343 73.875 14.524C73.875 14.192 73.9251 13.8819 74.0253 13.5937C74.1287 13.3055 74.2759 13.0565 74.467 12.8467C74.658 12.6337 74.8914 12.4677 75.167 12.3486C75.4427 12.2265 75.7528 12.1654 76.0973 12.1654C76.3823 12.1654 76.6454 12.214 76.8866 12.3111C77.1309 12.405 77.3408 12.5428 77.5162 12.7245C77.6947 12.903 77.8341 13.1254 77.9343 13.3917C78.0346 13.6548 78.0847 13.9555 78.0847 14.2938C78.0847 14.4253 78.0706 14.513 78.0424 14.5569C78.0142 14.6007 77.961 14.6226 77.8827 14.6226H74.7019C74.7113 14.9233 74.752 15.1849 74.824 15.4073C74.8992 15.6297 75.0026 15.816 75.1341 15.9664C75.2657 16.1136 75.4223 16.2248 75.604 16.2999C75.7856 16.372 75.9892 16.408 76.2148 16.408C76.4246 16.408 76.6047 16.3845 76.7551 16.3375C76.9085 16.2874 77.0401 16.2342 77.1497 16.1778C77.2594 16.1214 77.3502 16.0697 77.4222 16.0227C77.4974 15.9726 77.5616 15.9476 77.6149 15.9476C77.6838 15.9476 77.737 15.9742 77.7746 16.0274L78.0095 16.3328ZM83.5224 12.1654C83.87 12.1654 84.1833 12.2234 84.462 12.3392C84.7408 12.4551 84.9788 12.6196 85.1762 12.8326C85.3735 13.0456 85.5239 13.304 85.6272 13.6078C85.7337 13.9085 85.787 14.2452 85.787 14.6179C85.787 14.9938 85.7337 15.3321 85.6272 15.6328C85.5239 15.9335 85.3735 16.1903 85.1762 16.4033C84.9788 16.6163 84.7408 16.7807 84.462 16.8966C84.1833 17.0094 83.87 17.0658 83.5224 17.0658C83.1716 17.0658 82.8552 17.0094 82.5733 16.8966C82.2945 16.7807 82.0565 16.6163 81.8591 16.4033C81.6618 16.1903 81.5099 15.9335 81.4034 15.6328C81.3 15.3321 81.2484 14.9938 81.2484 14.6179C81.2484 14.2452 81.3 13.9085 81.4034 13.6078C81.5099 13.304 81.6618 13.0456 81.8591 12.8326C82.0565 12.6196 82.2945 12.4551 82.5733 12.3392C82.8552 12.2234 83.1716 12.1654 83.5224 12.1654ZM83.5224 16.4127C83.9922 16.4127 84.343 16.2561 84.5748 15.9429C84.8066 15.6265 84.9225 15.1864 84.9225 14.6226C84.9225 14.0557 84.8066 13.6141 84.5748 13.2977C84.343 12.9814 83.9922 12.8232 83.5224 12.8232C83.2843 12.8232 83.076 12.8639 82.8975 12.9453C82.7221 13.0268 82.5749 13.1442 82.4558 13.2977C82.3399 13.4512 82.2522 13.6407 82.1927 13.8662C82.1363 14.0886 82.1082 14.3407 82.1082 14.6226C82.1082 15.1864 82.2241 15.6265 82.4558 15.9429C82.6908 16.2561 83.0463 16.4127 83.5224 16.4127ZM87.637 12.9312C87.7404 12.8153 87.85 12.7104 87.9659 12.6164C88.0818 12.5225 88.2039 12.4426 88.3324 12.3768C88.4639 12.3079 88.6017 12.2562 88.7458 12.2218C88.893 12.1842 89.0512 12.1654 89.2203 12.1654C89.4803 12.1654 89.709 12.2093 89.9063 12.297C90.1068 12.3815 90.2728 12.5037 90.4043 12.6634C90.539 12.82 90.6408 13.0095 90.7097 13.2319C90.7786 13.4543 90.8131 13.7002 90.8131 13.9696V17H89.9721V13.9696C89.9721 13.6094 89.8891 13.3306 89.7231 13.1333C89.5602 12.9328 89.3112 12.8326 88.976 12.8326C88.7286 12.8326 88.4968 12.8921 88.2807 13.0111C88.0677 13.1301 87.8704 13.2914 87.6887 13.495V17H86.8477V12.2406H87.3504C87.4694 12.2406 87.543 12.2985 87.5712 12.4144L87.637 12.9312ZM95.9528 17.0752C95.577 17.0752 95.2872 16.9702 95.0837 16.7604C94.8832 16.5505 94.783 16.2483 94.783 15.8536V12.9406H94.2098C94.1596 12.9406 94.1174 12.9265 94.0829 12.8983C94.0485 12.867 94.0312 12.82 94.0312 12.7574V12.4238L94.8111 12.3252L95.0038 10.8546C95.0132 10.8076 95.0335 10.77 95.0649 10.7418C95.0993 10.7105 95.1432 10.6948 95.1964 10.6948H95.6193V12.3345H96.9959V12.9406H95.6193V15.7972C95.6193 15.9977 95.6678 16.1465 95.7649 16.2436C95.862 16.3407 95.9873 16.3892 96.1408 16.3892C96.2285 16.3892 96.3037 16.3783 96.3663 16.3563C96.4321 16.3313 96.4885 16.3046 96.5354 16.2765C96.5824 16.2483 96.6216 16.2232 96.6529 16.2013C96.6874 16.1762 96.7171 16.1637 96.7422 16.1637C96.786 16.1637 96.8252 16.1903 96.8596 16.2436L97.1039 16.6429C96.9599 16.7776 96.786 16.8841 96.5824 16.9624C96.3788 17.0376 96.169 17.0752 95.9528 17.0752ZM98.7004 12.8749C98.904 12.6587 99.1295 12.4865 99.377 12.358C99.6244 12.2296 99.9095 12.1654 100.232 12.1654C100.492 12.1654 100.721 12.2093 100.918 12.297C101.119 12.3815 101.285 12.5037 101.416 12.6634C101.551 12.82 101.653 13.0095 101.721 13.2319C101.79 13.4543 101.825 13.7002 101.825 13.9696V17H100.984V13.9696C100.984 13.6094 100.901 13.3306 100.735 13.1333C100.572 12.9328 100.323 12.8326 99.9878 12.8326C99.7403 12.8326 99.5085 12.8921 99.2924 13.0111C99.0794 13.1301 98.8821 13.2914 98.7004 13.495V17H97.8594V10.0793H98.7004V12.8749ZM106.285 14.1011C106.285 13.9069 106.256 13.73 106.2 13.5702C106.147 13.4073 106.067 13.268 105.96 13.1521C105.857 13.033 105.73 12.9422 105.58 12.8796C105.43 12.8138 105.259 12.7809 105.068 12.7809C104.667 12.7809 104.349 12.8983 104.114 13.1333C103.882 13.3651 103.738 13.6877 103.682 14.1011H106.285ZM106.961 16.3328C106.858 16.4581 106.734 16.5678 106.59 16.6617C106.446 16.7526 106.291 16.8277 106.125 16.8872C105.962 16.9468 105.793 16.9906 105.617 17.0188C105.442 17.0501 105.268 17.0658 105.096 17.0658C104.767 17.0658 104.463 17.011 104.184 16.9013C103.909 16.7886 103.669 16.6257 103.466 16.4127C103.265 16.1966 103.109 15.9303 102.996 15.614C102.883 15.2976 102.827 14.9343 102.827 14.524C102.827 14.192 102.877 13.8819 102.977 13.5937C103.08 13.3055 103.228 13.0565 103.419 12.8467C103.61 12.6337 103.843 12.4677 104.119 12.3486C104.394 12.2265 104.704 12.1654 105.049 12.1654C105.334 12.1654 105.597 12.214 105.838 12.3111C106.083 12.405 106.292 12.5428 106.468 12.7245C106.646 12.903 106.786 13.1254 106.886 13.3917C106.986 13.6548 107.036 13.9555 107.036 14.2938C107.036 14.4253 107.022 14.513 106.994 14.5569C106.966 14.6007 106.913 14.6226 106.834 14.6226H103.654C103.663 14.9233 103.704 15.1849 103.776 15.4073C103.851 15.6297 103.954 15.816 104.086 15.9664C104.217 16.1136 104.374 16.2248 104.556 16.2999C104.737 16.372 104.941 16.408 105.166 16.408C105.376 16.408 105.556 16.3845 105.707 16.3375C105.86 16.2874 105.992 16.2342 106.101 16.1778C106.211 16.1214 106.302 16.0697 106.374 16.0227C106.449 15.9726 106.513 15.9476 106.567 15.9476C106.635 15.9476 106.689 15.9742 106.726 16.0274L106.961 16.3328ZM47.6677 26.3353L46.4865 23.1069C46.4283 22.9637 46.3679 22.7936 46.3052 22.5968C46.2426 22.3999 46.1799 22.1873 46.1173 21.9591C46.0591 22.1873 45.9987 22.4021 45.9361 22.6035C45.8734 22.8004 45.813 22.9726 45.7549 23.1203L44.5803 26.3353H47.6677ZM50.8559 30H49.4598C49.3032 30 49.1757 29.962 49.0773 29.8859C48.9788 29.8054 48.905 29.7069 48.8558 29.5906L48.1309 27.6106H44.1104L43.3855 29.5906C43.3498 29.6935 43.2804 29.7875 43.1775 29.8725C43.0746 29.9575 42.947 30 42.7949 30H41.3854L45.2045 20.2946H47.0435L50.8559 30ZM53.2435 28.2146C53.4314 28.4428 53.635 28.6039 53.8542 28.6979C54.078 28.7919 54.3196 28.8388 54.5791 28.8388C54.8297 28.8388 55.0557 28.7919 55.257 28.6979C55.4584 28.6039 55.6284 28.4607 55.7671 28.2683C55.9103 28.0759 56.02 27.8343 56.096 27.5434C56.1721 27.2481 56.2101 26.9013 56.2101 26.5031C56.2101 26.1004 56.1766 25.7603 56.1094 25.4829C56.0468 25.201 55.9551 24.9728 55.8343 24.7983C55.7134 24.6238 55.5658 24.4962 55.3913 24.4157C55.2212 24.3351 55.0266 24.2949 54.8073 24.2949C54.4628 24.2949 54.1697 24.3687 53.9281 24.5164C53.6864 24.6596 53.4582 24.8631 53.2435 25.1272V28.2146ZM53.1562 24.0532C53.4381 23.7355 53.758 23.4783 54.116 23.2814C54.474 23.0845 54.8946 22.986 55.3778 22.986C55.7537 22.986 56.096 23.0644 56.4048 23.221C56.718 23.3776 56.9865 23.6058 57.2102 23.9056C57.4384 24.2009 57.6129 24.5678 57.7337 25.0063C57.859 25.4404 57.9217 25.9393 57.9217 26.5031C57.9217 27.0177 57.8523 27.4942 57.7136 27.9327C57.5749 28.3712 57.3758 28.7516 57.1162 29.0738C56.8612 29.3959 56.5502 29.6487 56.1833 29.8322C55.8208 30.0112 55.4136 30.1007 54.9617 30.1007C54.5769 30.1007 54.248 30.0425 53.9751 29.9262C53.7021 29.8054 53.4582 29.6398 53.2435 29.4295V32.2485H51.5856V23.1136H52.5991C52.8139 23.1136 52.9548 23.2143 53.022 23.4156L53.1562 24.0532ZM60.873 28.2146C61.061 28.4428 61.2645 28.6039 61.4838 28.6979C61.7075 28.7919 61.9492 28.8388 62.2087 28.8388C62.4593 28.8388 62.6852 28.7919 62.8866 28.6979C63.088 28.6039 63.258 28.4607 63.3967 28.2683C63.5399 28.0759 63.6495 27.8343 63.7256 27.5434C63.8017 27.2481 63.8397 26.9013 63.8397 26.5031C63.8397 26.1004 63.8061 25.7603 63.739 25.4829C63.6764 25.201 63.5846 24.9728 63.4638 24.7983C63.343 24.6238 63.1953 24.4962 63.0208 24.4157C62.8508 24.3351 62.6562 24.2949 62.4369 24.2949C62.0923 24.2949 61.7993 24.3687 61.5576 24.5164C61.316 24.6596 61.0878 24.8631 60.873 25.1272V28.2146ZM60.7858 24.0532C61.0677 23.7355 61.3876 23.4783 61.7456 23.2814C62.1035 23.0845 62.5241 22.986 63.0074 22.986C63.3833 22.986 63.7256 23.0644 64.0343 23.221C64.3476 23.3776 64.616 23.6058 64.8398 23.9056C65.068 24.2009 65.2425 24.5678 65.3633 25.0063C65.4886 25.4404 65.5512 25.9393 65.5512 26.5031C65.5512 27.0177 65.4819 27.4942 65.3432 27.9327C65.2044 28.3712 65.0053 28.7516 64.7458 29.0738C64.4907 29.3959 64.1798 29.6487 63.8128 29.8322C63.4504 30.0112 63.0432 30.1007 62.5913 30.1007C62.2065 30.1007 61.8776 30.0425 61.6046 29.9262C61.3317 29.8054 61.0878 29.6398 60.873 29.4295V32.2485H59.2152V23.1136H60.2287C60.4435 23.1136 60.5844 23.2143 60.6515 23.4156L60.7858 24.0532ZM75.5389 22.0598C75.4852 22.1538 75.427 22.2231 75.3644 22.2679C75.3062 22.3081 75.2324 22.3283 75.1429 22.3283C75.0489 22.3283 74.946 22.2947 74.8341 22.2276C74.7267 22.156 74.597 22.0777 74.4448 21.9927C74.2927 21.9077 74.1137 21.8316 73.9079 21.7645C73.7065 21.6929 73.4671 21.6571 73.1897 21.6571C72.9391 21.6571 72.7199 21.6884 72.5319 21.7511C72.344 21.8092 72.1851 21.892 72.0554 21.9994C71.9301 22.1068 71.8361 22.2366 71.7735 22.3887C71.7108 22.5364 71.6795 22.6997 71.6795 22.8787C71.6795 23.1069 71.7422 23.297 71.8674 23.4492C71.9972 23.6013 72.1672 23.7311 72.3776 23.8385C72.5879 23.9459 72.8273 24.0421 73.0957 24.1271C73.3642 24.2121 73.6394 24.3038 73.9213 24.4023C74.2032 24.4962 74.4784 24.6081 74.7469 24.7379C75.0153 24.8631 75.2547 25.0242 75.465 25.2211C75.6753 25.4135 75.8431 25.6507 75.9684 25.9326C76.0982 26.2145 76.1631 26.5568 76.1631 26.9595C76.1631 27.398 76.087 27.8097 75.9349 28.1945C75.7872 28.5748 75.568 28.9082 75.2771 29.1946C74.9907 29.4765 74.6395 29.7002 74.2233 29.8658C73.8072 30.0268 73.3306 30.1074 72.7937 30.1074C72.4849 30.1074 72.1807 30.0761 71.8809 30.0134C71.5811 29.9553 71.2925 29.8702 71.015 29.7584C70.7421 29.6465 70.4848 29.5123 70.2432 29.3557C70.0015 29.199 69.7868 29.0245 69.5988 28.8321L70.1291 27.9663C70.1738 27.9036 70.232 27.8522 70.3036 27.8119C70.3752 27.7672 70.4512 27.7448 70.5318 27.7448C70.6436 27.7448 70.7645 27.7918 70.8942 27.8857C71.024 27.9752 71.1784 28.0759 71.3573 28.1878C71.5363 28.2996 71.7444 28.4026 71.9816 28.4965C72.2232 28.586 72.5118 28.6308 72.8474 28.6308C73.362 28.6308 73.7602 28.51 74.0421 28.2683C74.324 28.0222 74.465 27.671 74.465 27.2146C74.465 26.9595 74.4001 26.7514 74.2703 26.5903C74.145 26.4293 73.9772 26.295 73.7669 26.1876C73.5566 26.0758 73.3172 25.9818 73.0487 25.9057C72.7803 25.8297 72.5073 25.7469 72.2299 25.6574C71.9525 25.5679 71.6795 25.4605 71.411 25.3352C71.1426 25.2099 70.9032 25.0466 70.6929 24.8453C70.4826 24.6439 70.3125 24.3933 70.1828 24.0935C70.0575 23.7892 69.9948 23.4156 69.9948 22.9726C69.9948 22.6191 70.0642 22.2746 70.2029 21.939C70.3461 21.6034 70.5519 21.3058 70.8204 21.0463C71.0889 20.7868 71.42 20.5787 71.8138 20.4221C72.2075 20.2655 72.6595 20.1872 73.1696 20.1872C73.7423 20.1872 74.2703 20.2767 74.7536 20.4557C75.2368 20.6346 75.6485 20.8852 75.9886 21.2074L75.5389 22.0598ZM79.4703 30.1074C78.8707 30.1074 78.4098 29.9396 78.0876 29.604C77.7699 29.2639 77.6111 28.7963 77.6111 28.2012V24.3553H76.9063C76.8168 24.3553 76.7408 24.3262 76.6781 24.268C76.6155 24.2099 76.5841 24.1226 76.5841 24.0063V23.3485L77.6916 23.1673L78.0406 21.2879C78.063 21.1984 78.1055 21.1291 78.1682 21.0799C78.2308 21.0306 78.3113 21.006 78.4098 21.006H79.2689V23.174H81.108V24.3553H79.2689V28.0871C79.2689 28.3019 79.3204 28.4697 79.4233 28.5905C79.5307 28.7113 79.6761 28.7717 79.8596 28.7717C79.9625 28.7717 80.0475 28.7605 80.1146 28.7382C80.1862 28.7113 80.2466 28.6845 80.2958 28.6576C80.3495 28.6308 80.3965 28.6062 80.4368 28.5838C80.477 28.5569 80.5173 28.5435 80.5576 28.5435C80.6068 28.5435 80.6471 28.5569 80.6784 28.5838C80.7097 28.6062 80.7433 28.642 80.7791 28.6912L81.2758 29.4966C81.0341 29.698 80.7567 29.8501 80.4435 29.953C80.1303 30.0559 79.8059 30.1074 79.4703 30.1074ZM85.1642 23.0062C85.6743 23.0062 86.1374 23.089 86.5535 23.2545C86.9741 23.4201 87.3321 23.655 87.6274 23.9593C87.9272 24.2636 88.1577 24.6349 88.3188 25.0735C88.4799 25.512 88.5604 26.0019 88.5604 26.5434C88.5604 27.0893 88.4799 27.5815 88.3188 28.02C88.1577 28.4585 87.9272 28.8321 87.6274 29.1409C87.3321 29.4496 86.9741 29.6868 86.5535 29.8523C86.1374 30.0179 85.6743 30.1007 85.1642 30.1007C84.6496 30.1007 84.182 30.0179 83.7614 29.8523C83.3408 29.6868 82.9806 29.4496 82.6808 29.1409C82.3854 28.8321 82.155 28.4585 81.9894 28.02C81.8283 27.5815 81.7478 27.0893 81.7478 26.5434C81.7478 26.0019 81.8283 25.512 81.9894 25.0735C82.155 24.6349 82.3854 24.2636 82.6808 23.9593C82.9806 23.655 83.3408 23.4201 83.7614 23.2545C84.182 23.089 84.6496 23.0062 85.1642 23.0062ZM85.1642 28.8254C85.7369 28.8254 86.1598 28.633 86.4327 28.2482C86.7101 27.8634 86.8489 27.2996 86.8489 26.5568C86.8489 25.814 86.7101 25.248 86.4327 24.8587C86.1598 24.4694 85.7369 24.2747 85.1642 24.2747C84.5825 24.2747 84.1507 24.4716 83.8688 24.8654C83.5913 25.2547 83.4526 25.8185 83.4526 26.5568C83.4526 27.2951 83.5913 27.8589 83.8688 28.2482C84.1507 28.633 84.5825 28.8254 85.1642 28.8254ZM91.3891 24.3083C91.6038 23.8966 91.8589 23.5745 92.1542 23.3418C92.4495 23.1046 92.7986 22.986 93.2013 22.986C93.519 22.986 93.774 23.0554 93.9664 23.1941L93.859 24.4358C93.8367 24.5164 93.8031 24.5745 93.7584 24.6103C93.7181 24.6417 93.6622 24.6573 93.5906 24.6573C93.5234 24.6573 93.4228 24.6461 93.2885 24.6238C93.1588 24.6014 93.0312 24.5902 92.9059 24.5902C92.7225 24.5902 92.5592 24.617 92.416 24.6707C92.2728 24.7244 92.143 24.8027 92.0267 24.9057C91.9148 25.0041 91.8141 25.1249 91.7246 25.2681C91.6396 25.4113 91.5591 25.5746 91.483 25.7581V30H89.8252V23.1136H90.7984C90.9684 23.1136 91.087 23.1449 91.1541 23.2075C91.2213 23.2657 91.266 23.3731 91.2884 23.5297L91.3891 24.3083ZM99.0728 25.7648C99.0728 25.55 99.0415 25.3486 98.9789 25.1607C98.9207 24.9683 98.8312 24.8005 98.7104 24.6573C98.5896 24.5141 98.4352 24.4023 98.2473 24.3217C98.0638 24.2367 97.849 24.1942 97.6029 24.1942C97.1241 24.1942 96.746 24.3307 96.4686 24.6036C96.1957 24.8766 96.0211 25.2636 95.9451 25.7648H99.0728ZM95.9115 26.7649C95.9384 27.1184 96.001 27.4249 96.0994 27.6844C96.1979 27.9394 96.3277 28.152 96.4887 28.322C96.6498 28.4876 96.84 28.6129 97.0593 28.6979C97.283 28.7784 97.5291 28.8187 97.7976 28.8187C98.066 28.8187 98.2965 28.7874 98.4889 28.7247C98.6858 28.6621 98.8558 28.5927 98.999 28.5167C99.1467 28.4406 99.2742 28.3712 99.3816 28.3086C99.4934 28.246 99.6008 28.2146 99.7037 28.2146C99.8425 28.2146 99.9454 28.2661 100.012 28.369L100.489 28.9731C100.306 29.1879 100.1 29.3691 99.8715 29.5167C99.6433 29.6599 99.4039 29.7763 99.1534 29.8658C98.9073 29.9508 98.6545 30.0112 98.3949 30.047C98.1399 30.0828 97.8915 30.1007 97.6499 30.1007C97.1711 30.1007 96.7259 30.0224 96.3142 29.8658C95.9026 29.7047 95.5446 29.4698 95.2403 29.161C94.9361 28.8478 94.6967 28.463 94.5221 28.0066C94.3476 27.5457 94.2604 27.0132 94.2604 26.4091C94.2604 25.9393 94.3365 25.4985 94.4886 25.0869C94.6407 24.6707 94.8577 24.3105 95.1396 24.0063C95.426 23.6975 95.7728 23.4536 96.18 23.2747C96.5917 23.0957 97.0548 23.0062 97.5694 23.0062C98.0034 23.0062 98.4039 23.0755 98.7708 23.2143C99.1377 23.353 99.4532 23.5566 99.7172 23.825C99.9812 24.089 100.187 24.4157 100.335 24.805C100.487 25.1898 100.563 25.6305 100.563 26.1272C100.563 26.3778 100.536 26.5478 100.482 26.6373C100.429 26.7223 100.326 26.7649 100.174 26.7649H95.9115Z" fill="#4A4A4A"/>
</svg>
