<svg width="134" height="40" viewBox="0 0 134 40" fill="none" xmlns="http://www.w3.org/2000/svg">
<rect width="134" height="40" rx="4" fill="white"/>
<rect x="0.35" y="0.35" width="133.3" height="39.3" rx="3.65" stroke="#4A4A4A" stroke-opacity="0.3" stroke-width="0.7"/>
<path d="M13.7428 11.1939V28.9423C13.7428 29.8739 14.7639 30.4453 15.5581 29.9579L30.1153 21.0223C30.8758 20.5554 30.8723 19.4492 30.1091 18.9872L15.5517 10.1744C14.7574 9.69347 13.7428 10.2655 13.7428 11.1939Z" fill="#FFC100"/>
<path d="M14.6444 30.0985L26.7907 16.978L15.552 10.1742C14.7578 9.69323 13.743 10.2652 13.743 11.1937V28.942C13.7432 29.5282 14.147 29.9712 14.6444 30.0985Z" fill="#D8E86D"/>
<path d="M15.5575 29.9589L25.5507 23.8249L26.7899 23.0642L14.6377 10.04C14.1429 10.1691 13.7422 10.6116 13.7422 11.1949V28.9433C13.7424 29.875 14.7635 30.4464 15.5575 29.9589Z" fill="#F52B2B"/>
<path d="M14.6436 30.0999L23.9622 20.0339L14.6377 10.0403C14.1428 10.1693 13.7422 10.6119 13.7422 11.1952V28.9435C13.7424 29.5295 14.1463 29.9726 14.6436 30.0999Z" fill="#00B7AD"/>
<path d="M48.1231 13.7628V16.3469C47.7848 16.5912 47.423 16.7745 47.0378 16.8966C46.6556 17.0157 46.2359 17.0752 45.7786 17.0752C45.2368 17.0752 44.7481 16.9922 44.3127 16.8262C43.8774 16.657 43.5046 16.4221 43.1945 16.1214C42.8876 15.8176 42.6511 15.4542 42.4851 15.0314C42.3191 14.6085 42.2361 14.1434 42.2361 13.636C42.2361 13.1223 42.3159 12.654 42.4757 12.2312C42.6386 11.8083 42.8688 11.4466 43.1663 11.1459C43.4639 10.842 43.8257 10.6071 44.2517 10.4411C44.6776 10.2751 45.1537 10.1921 45.68 10.1921C45.9462 10.1921 46.1936 10.2125 46.4223 10.2532C46.651 10.2908 46.8624 10.3472 47.0566 10.4223C47.2508 10.4944 47.4309 10.5836 47.5969 10.6901C47.7629 10.7935 47.9179 10.911 48.062 11.0425L47.8036 11.456C47.7629 11.5186 47.7096 11.5593 47.6439 11.5781C47.5812 11.5938 47.5107 11.5781 47.4324 11.5311C47.3573 11.4873 47.2711 11.434 47.174 11.3714C47.0769 11.3087 46.9579 11.2492 46.817 11.1929C46.6791 11.1333 46.5147 11.0832 46.3236 11.0425C46.1357 11.0018 45.9117 10.9814 45.6518 10.9814C45.2728 10.9814 44.9298 11.0441 44.6228 11.1694C44.3159 11.2915 44.0543 11.4685 43.8382 11.7003C43.6221 11.9289 43.4561 12.2077 43.3402 12.5366C43.2243 12.8623 43.1663 13.2288 43.1663 13.636C43.1663 14.0588 43.2259 14.4378 43.3449 14.773C43.467 15.105 43.6393 15.3885 43.8617 15.6234C44.0872 15.8552 44.3597 16.0321 44.6792 16.1543C44.9987 16.2765 45.3573 16.3375 45.7551 16.3375C46.0684 16.3375 46.3456 16.3031 46.5867 16.2342C46.8311 16.1621 47.0691 16.0635 47.3009 15.9382V14.4582H46.2532C46.1936 14.4582 46.1451 14.441 46.1075 14.4065C46.0731 14.3721 46.0558 14.3298 46.0558 14.2797V13.7628H48.1231ZM52.4513 14.1011C52.4513 13.9069 52.4231 13.73 52.3667 13.5702C52.3135 13.4073 52.2336 13.268 52.1271 13.1521C52.0237 13.033 51.8969 12.9422 51.7465 12.8796C51.5962 12.8138 51.4255 12.7809 51.2344 12.7809C50.8335 12.7809 50.5156 12.8983 50.2807 13.1333C50.0489 13.3651 49.9048 13.6877 49.8484 14.1011H52.4513ZM53.1279 16.3328C53.0245 16.4581 52.9008 16.5678 52.7567 16.6617C52.6126 16.7526 52.4576 16.8277 52.2916 16.8872C52.1287 16.9468 51.9595 16.9906 51.7841 17.0188C51.6087 17.0501 51.4349 17.0658 51.2626 17.0658C50.9337 17.0658 50.6299 17.011 50.3511 16.9013C50.0755 16.7886 49.8359 16.6257 49.6323 16.4127C49.4318 16.1966 49.2752 15.9303 49.1625 15.614C49.0497 15.2976 48.9933 14.9343 48.9933 14.524C48.9933 14.192 49.0434 13.8819 49.1437 13.5937C49.247 13.3055 49.3942 13.0565 49.5853 12.8467C49.7764 12.6337 50.0097 12.4677 50.2854 12.3486C50.561 12.2265 50.8711 12.1654 51.2156 12.1654C51.5007 12.1654 51.7638 12.214 52.005 12.3111C52.2493 12.405 52.4591 12.5428 52.6345 12.7245C52.8131 12.903 52.9525 13.1254 53.0527 13.3917C53.1529 13.6548 53.203 13.9555 53.203 14.2938C53.203 14.4253 53.1889 14.513 53.1607 14.5569C53.1326 14.6007 53.0793 14.6226 53.001 14.6226H49.8202C49.8296 14.9233 49.8703 15.1849 49.9424 15.4073C50.0176 15.6297 50.1209 15.816 50.2525 15.9664C50.384 16.1136 50.5406 16.2248 50.7223 16.2999C50.904 16.372 51.1076 16.408 51.3331 16.408C51.5429 16.408 51.7231 16.3845 51.8734 16.3375C52.0269 16.2874 52.1584 16.2342 52.2681 16.1778C52.3777 16.1214 52.4685 16.0697 52.5406 16.0227C52.6157 15.9726 52.6799 15.9476 52.7332 15.9476C52.8021 15.9476 52.8554 15.9742 52.8929 16.0274L53.1279 16.3328ZM55.6548 17.0752C55.2789 17.0752 54.9892 16.9702 54.7856 16.7604C54.5851 16.5505 54.4849 16.2483 54.4849 15.8536V12.9406H53.9117C53.8616 12.9406 53.8193 12.9265 53.7848 12.8983C53.7504 12.867 53.7331 12.82 53.7331 12.7574V12.4238L54.5131 12.3252L54.7057 10.8546C54.7151 10.8076 54.7354 10.77 54.7668 10.7418C54.8012 10.7105 54.8451 10.6948 54.8983 10.6948H55.3212V12.3345H56.6978V12.9406H55.3212V15.7972C55.3212 15.9977 55.3697 16.1465 55.4668 16.2436C55.5639 16.3407 55.6892 16.3892 55.8427 16.3892C55.9304 16.3892 56.0056 16.3783 56.0682 16.3563C56.134 16.3313 56.1904 16.3046 56.2373 16.2765C56.2843 16.2483 56.3235 16.2232 56.3548 16.2013C56.3893 16.1762 56.419 16.1637 56.4441 16.1637C56.4879 16.1637 56.5271 16.1903 56.5615 16.2436L56.8058 16.6429C56.6618 16.7776 56.4879 16.8841 56.2843 16.9624C56.0807 17.0376 55.8709 17.0752 55.6548 17.0752ZM60.8488 12.2406V17H60.0125V12.2406H60.8488ZM61.0274 10.7465C61.0274 10.8279 61.0102 10.9047 60.9757 10.9767C60.9444 11.0456 60.9005 11.1083 60.8441 11.1647C60.7909 11.2179 60.7267 11.2602 60.6515 11.2915C60.5795 11.3228 60.5027 11.3385 60.4213 11.3385C60.3399 11.3385 60.2631 11.3228 60.1911 11.2915C60.1222 11.2602 60.0611 11.2179 60.0078 11.1647C59.9546 11.1083 59.9123 11.0456 59.881 10.9767C59.8497 10.9047 59.834 10.8279 59.834 10.7465C59.834 10.6651 59.8497 10.5883 59.881 10.5163C59.9123 10.4411 59.9546 10.3769 60.0078 10.3237C60.0611 10.2673 60.1222 10.2234 60.1911 10.1921C60.2631 10.1608 60.3399 10.1451 60.4213 10.1451C60.5027 10.1451 60.5795 10.1608 60.6515 10.1921C60.7267 10.2234 60.7909 10.2673 60.8441 10.3237C60.9005 10.3769 60.9444 10.4411 60.9757 10.5163C61.0102 10.5883 61.0274 10.6651 61.0274 10.7465ZM63.6841 17.0752C63.3083 17.0752 63.0185 16.9702 62.815 16.7604C62.6145 16.5505 62.5143 16.2483 62.5143 15.8536V12.9406H61.9411C61.8909 12.9406 61.8487 12.9265 61.8142 12.8983C61.7798 12.867 61.7625 12.82 61.7625 12.7574V12.4238L62.5424 12.3252L62.7351 10.8546C62.7445 10.8076 62.7648 10.77 62.7962 10.7418C62.8306 10.7105 62.8745 10.6948 62.9277 10.6948H63.3506V12.3345H64.7272V12.9406H63.3506V15.7972C63.3506 15.9977 63.3991 16.1465 63.4962 16.2436C63.5933 16.3407 63.7186 16.3892 63.8721 16.3892C63.9598 16.3892 64.035 16.3783 64.0976 16.3563C64.1634 16.3313 64.2198 16.3046 64.2667 16.2765C64.3137 16.2483 64.3529 16.2232 64.3842 16.2013C64.4187 16.1762 64.4484 16.1637 64.4735 16.1637C64.5173 16.1637 64.5565 16.1903 64.5909 16.2436L64.8352 16.6429C64.6912 16.7776 64.5173 16.8841 64.3137 16.9624C64.1101 17.0376 63.9003 17.0752 63.6841 17.0752ZM70.0011 12.1654C70.3488 12.1654 70.662 12.2234 70.9408 12.3392C71.2196 12.4551 71.4576 12.6196 71.6549 12.8326C71.8523 13.0456 72.0026 13.304 72.106 13.6078C72.2125 13.9085 72.2657 14.2452 72.2657 14.6179C72.2657 14.9938 72.2125 15.3321 72.106 15.6328C72.0026 15.9335 71.8523 16.1903 71.6549 16.4033C71.4576 16.6163 71.2196 16.7807 70.9408 16.8966C70.662 17.0094 70.3488 17.0658 70.0011 17.0658C69.6503 17.0658 69.334 17.0094 69.0521 16.8966C68.7733 16.7807 68.5353 16.6163 68.3379 16.4033C68.1406 16.1903 67.9887 15.9335 67.8822 15.6328C67.7788 15.3321 67.7271 14.9938 67.7271 14.6179C67.7271 14.2452 67.7788 13.9085 67.8822 13.6078C67.9887 13.304 68.1406 13.0456 68.3379 12.8326C68.5353 12.6196 68.7733 12.4551 69.0521 12.3392C69.334 12.2234 69.6503 12.1654 70.0011 12.1654ZM70.0011 16.4127C70.471 16.4127 70.8218 16.2561 71.0536 15.9429C71.2853 15.6265 71.4012 15.1864 71.4012 14.6226C71.4012 14.0557 71.2853 13.6141 71.0536 13.2977C70.8218 12.9814 70.471 12.8232 70.0011 12.8232C69.7631 12.8232 69.5548 12.8639 69.3763 12.9453C69.2009 13.0268 69.0536 13.1442 68.9346 13.2977C68.8187 13.4512 68.731 13.6407 68.6715 13.8662C68.6151 14.0886 68.5869 14.3407 68.5869 14.6226C68.5869 15.1864 68.7028 15.6265 68.9346 15.9429C69.1695 16.2561 69.525 16.4127 70.0011 16.4127ZM74.1158 12.9312C74.2191 12.8153 74.3288 12.7104 74.4447 12.6164C74.5606 12.5225 74.6827 12.4426 74.8111 12.3768C74.9427 12.3079 75.0805 12.2562 75.2246 12.2218C75.3718 12.1842 75.53 12.1654 75.6991 12.1654C75.9591 12.1654 76.1877 12.2093 76.3851 12.297C76.5855 12.3815 76.7515 12.5037 76.8831 12.6634C77.0178 12.82 77.1196 13.0095 77.1885 13.2319C77.2574 13.4543 77.2919 13.7002 77.2919 13.9696V17H76.4509V13.9696C76.4509 13.6094 76.3678 13.3306 76.2018 13.1333C76.039 12.9328 75.79 12.8326 75.4548 12.8326C75.2074 12.8326 74.9756 12.8921 74.7595 13.0111C74.5465 13.1301 74.3491 13.2914 74.1675 13.495V17H73.3265V12.2406H73.8292C73.9482 12.2406 74.0218 12.2985 74.05 12.4144L74.1158 12.9312ZM50.8757 25.1339V29.0603C50.3834 29.4228 49.8577 29.689 49.2984 29.859C48.7435 30.0246 48.1484 30.1074 47.513 30.1074C46.721 30.1074 46.0028 29.9843 45.3585 29.7382C44.7186 29.4921 44.1705 29.1498 43.714 28.7113C43.2621 28.2728 42.9131 27.7493 42.667 27.1407C42.4209 26.5322 42.2978 25.8677 42.2978 25.1473C42.2978 24.4179 42.4164 23.749 42.6536 23.1404C42.8907 22.5319 43.2263 22.0083 43.6603 21.5698C44.0989 21.1313 44.6291 20.7913 45.2511 20.5496C45.873 20.308 46.5711 20.1872 47.3452 20.1872C47.739 20.1872 48.1059 20.2185 48.4459 20.2811C48.7905 20.3438 49.1082 20.431 49.399 20.5429C49.6944 20.6503 49.9628 20.7823 50.2045 20.9389C50.4461 21.0955 50.6676 21.2678 50.8689 21.4557L50.3521 22.2746C50.2716 22.4044 50.1664 22.4849 50.0367 22.5162C49.9069 22.5431 49.7659 22.5095 49.6138 22.4155C49.4662 22.3305 49.3185 22.2455 49.1708 22.1605C49.0232 22.0755 48.8576 22.0016 48.6741 21.939C48.4952 21.8763 48.2916 21.8249 48.0634 21.7846C47.8396 21.7443 47.5801 21.7242 47.2848 21.7242C46.806 21.7242 46.372 21.8048 45.9827 21.9658C45.5979 22.1269 45.269 22.3574 44.996 22.6572C44.7231 22.957 44.5128 23.3172 44.3651 23.7378C44.2174 24.1584 44.1436 24.6282 44.1436 25.1473C44.1436 25.7021 44.2219 26.1988 44.3785 26.6373C44.5396 27.0714 44.7633 27.4405 45.0497 27.7448C45.3406 28.0446 45.6896 28.275 46.0968 28.4361C46.504 28.5927 46.9581 28.671 47.4593 28.671C47.8173 28.671 48.1372 28.633 48.4191 28.5569C48.701 28.4809 48.9762 28.378 49.2447 28.2482V26.4897H48.0231C47.9067 26.4897 47.815 26.4583 47.7479 26.3957C47.6853 26.3286 47.6539 26.248 47.6539 26.1541V25.1339H50.8757ZM55.322 23.0062C55.8321 23.0062 56.2952 23.089 56.7113 23.2545C57.132 23.4201 57.4899 23.655 57.7853 23.9593C58.0851 24.2636 58.3155 24.6349 58.4766 25.0735C58.6377 25.512 58.7182 26.0019 58.7182 26.5434C58.7182 27.0893 58.6377 27.5815 58.4766 28.02C58.3155 28.4585 58.0851 28.8321 57.7853 29.1409C57.4899 29.4496 57.132 29.6868 56.7113 29.8523C56.2952 30.0179 55.8321 30.1007 55.322 30.1007C54.8074 30.1007 54.3398 30.0179 53.9192 29.8523C53.4986 29.6868 53.1384 29.4496 52.8386 29.1409C52.5432 28.8321 52.3128 28.4585 52.1472 28.02C51.9862 27.5815 51.9056 27.0893 51.9056 26.5434C51.9056 26.0019 51.9862 25.512 52.1472 25.0735C52.3128 24.6349 52.5432 24.2636 52.8386 23.9593C53.1384 23.655 53.4986 23.4201 53.9192 23.2545C54.3398 23.089 54.8074 23.0062 55.322 23.0062ZM55.322 28.8254C55.8947 28.8254 56.3176 28.633 56.5905 28.2482C56.868 27.8634 57.0067 27.2996 57.0067 26.5568C57.0067 25.814 56.868 25.248 56.5905 24.8587C56.3176 24.4694 55.8947 24.2747 55.322 24.2747C54.7403 24.2747 54.3085 24.4716 54.0266 24.8654C53.7492 25.2547 53.6104 25.8185 53.6104 26.5568C53.6104 27.2951 53.7492 27.8589 54.0266 28.2482C54.3085 28.633 54.7403 28.8254 55.322 28.8254ZM63.0302 23.0062C63.5403 23.0062 64.0034 23.089 64.4196 23.2545C64.8402 23.4201 65.1981 23.655 65.4935 23.9593C65.7933 24.2636 66.0237 24.6349 66.1848 25.0735C66.3459 25.512 66.4264 26.0019 66.4264 26.5434C66.4264 27.0893 66.3459 27.5815 66.1848 28.02C66.0237 28.4585 65.7933 28.8321 65.4935 29.1409C65.1981 29.4496 64.8402 29.6868 64.4196 29.8523C64.0034 30.0179 63.5403 30.1007 63.0302 30.1007C62.5156 30.1007 62.048 30.0179 61.6274 29.8523C61.2068 29.6868 60.8466 29.4496 60.5468 29.1409C60.2515 28.8321 60.021 28.4585 59.8555 28.02C59.6944 27.5815 59.6138 27.0893 59.6138 26.5434C59.6138 26.0019 59.6944 25.512 59.8555 25.0735C60.021 24.6349 60.2515 24.2636 60.5468 23.9593C60.8466 23.655 61.2068 23.4201 61.6274 23.2545C62.048 23.089 62.5156 23.0062 63.0302 23.0062ZM63.0302 28.8254C63.6029 28.8254 64.0258 28.633 64.2987 28.2482C64.5762 27.8634 64.7149 27.2996 64.7149 26.5568C64.7149 25.814 64.5762 25.248 64.2987 24.8587C64.0258 24.4694 63.6029 24.2747 63.0302 24.2747C62.4485 24.2747 62.0167 24.4716 61.7348 24.8654C61.4574 25.2547 61.3187 25.8185 61.3187 26.5568C61.3187 27.2951 61.4574 27.8589 61.7348 28.2482C62.0167 28.633 62.4485 28.8254 63.0302 28.8254ZM70.1557 26.389C70.3616 26.389 70.5405 26.3621 70.6927 26.3084C70.8448 26.2503 70.9701 26.172 71.0685 26.0735C71.1715 25.9751 71.2475 25.8565 71.2968 25.7178C71.3505 25.5791 71.3773 25.4269 71.3773 25.2614C71.3773 24.9213 71.2744 24.6528 71.0685 24.456C70.8672 24.2546 70.5629 24.1539 70.1557 24.1539C69.7485 24.1539 69.442 24.2546 69.2362 24.456C69.0348 24.6528 68.9342 24.9213 68.9342 25.2614C68.9342 25.4225 68.9588 25.5724 69.008 25.7111C69.0617 25.8498 69.1378 25.9706 69.2362 26.0735C69.3391 26.172 69.4666 26.2503 69.6188 26.3084C69.7754 26.3621 69.9544 26.389 70.1557 26.389ZM72.0284 30.3087C72.0284 30.1745 71.9881 30.0649 71.9075 29.9799C71.827 29.8948 71.7174 29.83 71.5787 29.7852C71.4399 29.736 71.2766 29.7002 71.0887 29.6778C70.9052 29.6555 70.7083 29.6398 70.498 29.6308C70.2922 29.6174 70.0774 29.6062 69.8537 29.5973C69.6344 29.5883 69.4197 29.5704 69.2093 29.5436C69.0259 29.6465 68.876 29.7673 68.7597 29.906C68.6478 30.0447 68.5919 30.2058 68.5919 30.3893C68.5919 30.5101 68.6209 30.622 68.6791 30.7249C68.7418 30.8323 68.838 30.924 68.9677 31.0001C69.102 31.0761 69.2742 31.1343 69.4845 31.1746C69.6948 31.2193 69.9521 31.2417 70.2564 31.2417C70.5652 31.2417 70.8314 31.2171 71.0551 31.1679C71.2789 31.1231 71.4623 31.0582 71.6055 30.9732C71.7532 30.8927 71.8606 30.7942 71.9277 30.6779C71.9948 30.566 72.0284 30.443 72.0284 30.3087ZM73.6795 23.3485V23.966C73.6795 24.1629 73.5609 24.2837 73.3238 24.3284L72.7063 24.4425C72.8002 24.6797 72.8472 24.9392 72.8472 25.2211C72.8472 25.5612 72.7779 25.8699 72.6391 26.1474C72.5049 26.4203 72.317 26.653 72.0753 26.8454C71.8337 27.0378 71.5473 27.1877 71.2162 27.2951C70.8896 27.398 70.5361 27.4495 70.1557 27.4495C70.0215 27.4495 69.8917 27.4428 69.7664 27.4293C69.6411 27.4159 69.5181 27.398 69.3973 27.3756C69.1825 27.5054 69.0751 27.6508 69.0751 27.8119C69.0751 27.9506 69.1378 28.0535 69.263 28.1207C69.3928 28.1833 69.5628 28.2281 69.7732 28.2549C69.9835 28.2818 70.2228 28.2996 70.4913 28.3086C70.7598 28.3131 71.035 28.3265 71.3169 28.3489C71.5988 28.3712 71.874 28.4115 72.1425 28.4697C72.4109 28.5234 72.6503 28.6106 72.8606 28.7314C73.0709 28.8523 73.2387 29.0178 73.364 29.2281C73.4938 29.434 73.5587 29.7002 73.5587 30.0268C73.5587 30.3311 73.4826 30.6264 73.3305 30.9128C73.1828 31.1992 72.9658 31.4542 72.6794 31.678C72.3975 31.9017 72.0485 32.0807 71.6324 32.2149C71.2207 32.3536 70.7509 32.423 70.2228 32.423C69.7038 32.423 69.2519 32.3715 68.867 32.2686C68.4822 32.1702 68.1623 32.0359 67.9072 31.8659C67.6522 31.7004 67.462 31.5079 67.3367 31.2887C67.2114 31.0694 67.1488 30.8412 67.1488 30.6041C67.1488 30.2819 67.245 30.0134 67.4374 29.7986C67.6343 29.5794 67.9028 29.4049 68.2428 29.2751C68.0594 29.1811 67.914 29.0559 67.8066 28.8992C67.6992 28.7426 67.6455 28.5368 67.6455 28.2818C67.6455 28.1788 67.6634 28.0737 67.6992 27.9663C67.7394 27.8544 67.7954 27.7448 67.867 27.6374C67.943 27.53 68.037 27.4293 68.1489 27.3354C68.2607 27.2369 68.3927 27.1497 68.5449 27.0736C68.1959 26.8857 67.9207 26.6351 67.7193 26.3219C67.5224 26.0086 67.424 25.6417 67.424 25.2211C67.424 24.881 67.4911 24.5745 67.6253 24.3016C67.7641 24.0242 67.9542 23.7892 68.1959 23.5968C68.442 23.4 68.7306 23.2501 69.0617 23.1471C69.3973 23.0442 69.762 22.9928 70.1557 22.9928C70.4511 22.9928 70.7285 23.0241 70.988 23.0867C71.2475 23.1449 71.4847 23.2322 71.6995 23.3485H73.6795ZM76.4088 20.0261V30H74.751V20.0261H76.4088ZM82.4972 25.7648C82.4972 25.55 82.4658 25.3486 82.4032 25.1607C82.345 24.9683 82.2555 24.8005 82.1347 24.6573C82.0139 24.5141 81.8595 24.4023 81.6716 24.3217C81.4881 24.2367 81.2733 24.1942 81.0272 24.1942C80.5485 24.1942 80.1704 24.3307 79.8929 24.6036C79.62 24.8766 79.4455 25.2636 79.3694 25.7648H82.4972ZM79.3358 26.7649C79.3627 27.1184 79.4253 27.4249 79.5238 27.6844C79.6222 27.9394 79.752 28.152 79.9131 28.322C80.0742 28.4876 80.2643 28.6129 80.4836 28.6979C80.7073 28.7784 80.9534 28.8187 81.2219 28.8187C81.4904 28.8187 81.7208 28.7874 81.9132 28.7247C82.1101 28.6621 82.2801 28.5927 82.4233 28.5167C82.571 28.4406 82.6985 28.3712 82.8059 28.3086C82.9178 28.246 83.0252 28.2146 83.1281 28.2146C83.2668 28.2146 83.3697 28.2661 83.4368 28.369L83.9134 28.9731C83.7299 29.1879 83.5241 29.3691 83.2959 29.5167C83.0677 29.6599 82.8283 29.7763 82.5777 29.8658C82.3316 29.9508 82.0788 30.0112 81.8193 30.047C81.5642 30.0828 81.3159 30.1007 81.0742 30.1007C80.5954 30.1007 80.1502 30.0224 79.7386 29.8658C79.3269 29.7047 78.9689 29.4698 78.6647 29.161C78.3604 28.8478 78.121 28.463 77.9465 28.0066C77.772 27.5457 77.6847 27.0132 77.6847 26.4091C77.6847 25.9393 77.7608 25.4985 77.9129 25.0869C78.0651 24.6707 78.2821 24.3105 78.564 24.0063C78.8503 23.6975 79.1971 23.4536 79.6043 23.2747C80.016 23.0957 80.4791 23.0062 80.9937 23.0062C81.4277 23.0062 81.8282 23.0755 82.1951 23.2143C82.562 23.353 82.8775 23.5566 83.1415 23.825C83.4055 24.089 83.6113 24.4157 83.759 24.805C83.9111 25.1898 83.9872 25.6305 83.9872 26.1272C83.9872 26.3778 83.9604 26.5478 83.9067 26.6373C83.853 26.7223 83.75 26.7649 83.5979 26.7649H79.3358ZM91.9119 25.1741C92.243 25.1741 92.5316 25.1339 92.7777 25.0533C93.0238 24.9683 93.2274 24.8497 93.3885 24.6976C93.5541 24.541 93.6771 24.353 93.7576 24.1338C93.8382 23.9101 93.8785 23.6617 93.8785 23.3888C93.8785 23.1292 93.8382 22.8943 93.7576 22.684C93.6771 22.4737 93.5563 22.2947 93.3952 22.1471C93.2341 21.9994 93.0305 21.8875 92.7844 21.8115C92.5383 21.7309 92.2475 21.6907 91.9119 21.6907H90.5628V25.1741H91.9119ZM91.9119 20.2946C92.5607 20.2946 93.1223 20.3706 93.5966 20.5228C94.0709 20.6749 94.4624 20.8875 94.7711 21.1604C95.0799 21.4334 95.3081 21.76 95.4558 22.1403C95.6079 22.5207 95.684 22.9368 95.684 23.3888C95.684 23.8586 95.6057 24.2904 95.4491 24.6842C95.2924 25.0735 95.0575 25.4091 94.7443 25.691C94.4311 25.9729 94.0373 26.1921 93.563 26.3487C93.0932 26.5053 92.5428 26.5836 91.9119 26.5836H90.5628V30H88.7573V20.2946H91.9119ZM98.4585 20.0261V30H96.8007V20.0261H98.4585ZM103.748 27.0602C103.269 27.0826 102.867 27.1251 102.54 27.1877C102.213 27.2459 101.952 27.3219 101.755 27.4159C101.558 27.5099 101.417 27.6195 101.332 27.7448C101.247 27.8701 101.204 28.0066 101.204 28.1542C101.204 28.4451 101.289 28.6531 101.459 28.7784C101.634 28.9037 101.86 28.9664 102.137 28.9664C102.477 28.9664 102.77 28.906 103.017 28.7851C103.267 28.6599 103.511 28.4719 103.748 28.2213V27.0602ZM99.9492 24.0734C100.741 23.3485 101.694 22.986 102.808 22.986C103.211 22.986 103.571 23.0532 103.889 23.1874C104.207 23.3172 104.475 23.5006 104.695 23.7378C104.914 23.9705 105.079 24.2501 105.191 24.5768C105.308 24.9034 105.366 25.2614 105.366 25.6507V30H104.614C104.457 30 104.337 29.9776 104.252 29.9329C104.166 29.8837 104.099 29.7875 104.05 29.6443L103.902 29.1476C103.728 29.3042 103.558 29.4429 103.392 29.5637C103.227 29.6801 103.055 29.7785 102.876 29.859C102.697 29.9396 102.504 30 102.298 30.0403C102.097 30.085 101.873 30.1074 101.627 30.1074C101.336 30.1074 101.068 30.0694 100.822 29.9933C100.576 29.9127 100.363 29.7942 100.184 29.6376C100.005 29.4809 99.8664 29.2863 99.768 29.0536C99.6695 28.8209 99.6203 28.5502 99.6203 28.2415C99.6203 28.067 99.6494 27.8947 99.7076 27.7247C99.7657 27.5502 99.8597 27.3846 99.9895 27.228C100.124 27.0714 100.296 26.9237 100.506 26.785C100.717 26.6463 100.974 26.5255 101.278 26.4225C101.587 26.3196 101.945 26.2369 102.352 26.1742C102.759 26.1071 103.225 26.0668 103.748 26.0534V25.6507C103.748 25.1898 103.65 24.8497 103.453 24.6305C103.256 24.4067 102.972 24.2949 102.6 24.2949C102.332 24.2949 102.108 24.3262 101.929 24.3888C101.755 24.4515 101.6 24.5231 101.466 24.6036C101.332 24.6797 101.209 24.749 101.097 24.8117C100.99 24.8743 100.869 24.9057 100.734 24.9057C100.618 24.9057 100.52 24.8766 100.439 24.8184C100.359 24.7558 100.294 24.6842 100.245 24.6036L99.9492 24.0734ZM112.986 23.1136L109.234 31.8928C109.185 32.0091 109.12 32.0964 109.039 32.1545C108.963 32.2172 108.845 32.2485 108.684 32.2485H107.449L108.737 29.4832L105.952 23.1136H107.408C107.538 23.1136 107.639 23.1449 107.71 23.2075C107.786 23.2702 107.842 23.3418 107.878 23.4223L109.341 26.9931C109.391 27.1139 109.431 27.2347 109.462 27.3555C109.498 27.4763 109.532 27.5994 109.563 27.7247C109.603 27.5994 109.643 27.4763 109.684 27.3555C109.724 27.2302 109.769 27.1072 109.818 26.9864L111.201 23.4223C111.236 23.3328 111.295 23.259 111.375 23.2008C111.46 23.1427 111.554 23.1136 111.657 23.1136H112.986Z" fill="#4A4A4A"/>
</svg>
